<?xml version="1.0" encoding="UTF-8"?>
<svg xmlns="http://www.w3.org/2000/svg" xmlns:xlink="http://www.w3.org/1999/xlink" width="px" height="96px" viewBox="0 0 84 96" version="1.1">
<g id="surface1">
<path style=" stroke:none;fill-rule:nonzero;fill:rgb(100%,100%,100%);fill-opacity:1;" d="M 0 6 L 0 90 L 84 90 L 84 6 Z M 45.710938 71.511719 C 45.710938 79.6875 40.914062 83.417969 33.917969 83.417969 C 27.601562 83.417969 23.945312 80.15625 22.070312 76.199219 L 28.5 72.320312 C 29.738281 74.511719 30.863281 76.367188 33.582031 76.367188 C 36.167969 76.367188 37.820312 75.355469 37.820312 71.398438 L 37.820312 44.570312 L 45.710938 44.570312 Z M 64.386719 83.417969 C 57.054688 83.417969 52.3125 79.929688 50.007812 75.355469 L 56.4375 71.644531 C 58.125 74.398438 60.335938 76.445312 64.21875 76.445312 C 67.480469 76.445312 69.582031 74.8125 69.582031 72.542969 C 69.582031 69.84375 67.445312 68.886719 63.824219 67.292969 L 61.855469 66.449219 C 56.15625 64.03125 52.386719 60.976562 52.386719 54.542969 C 52.386719 48.617188 56.90625 44.117188 63.9375 44.117188 C 68.960938 44.117188 72.5625 45.863281 75.148438 50.4375 L 69 54.375 C 67.648438 51.957031 66.1875 51 63.917969 51 C 61.613281 51 60.148438 52.460938 60.148438 54.375 C 60.148438 56.738281 61.613281 57.695312 65.007812 59.175781 L 66.976562 60.019531 C 73.6875 62.886719 77.457031 65.832031 77.457031 72.429688 C 77.457031 79.519531 71.867188 83.417969 64.386719 83.417969 Z M 64.386719 83.417969 "/>
</g>
</svg>
