<svg xmlns="http://www.w3.org/2000/svg" width="1059" height="1144" xmlns:v="https://vecta.io/nano"><path d="M18.878-.13l2.183-.006 7.332-.001 5.297-.008 14.679-.008 15.923-.014L95.93-.188l37.872-.026 91.547-.054 30.31-.014 158.715-.059 11.621-.003 2.329-.001L451.68-.35l4.683-.001 150.435-.083 108.073-.067 2.244-.001 48.765-.009 19.62-.002h2.169l69.227-.048 71.647-.025 41.335-.03h27.575l15.735-.013 14.299.006 5.156-.015 6.977.016 3.91-.002c5.231.94 8.057 3.603 11.114 7.975l1.168 2.273 1.207 2.289c1.953 4.156 2.107 7.407 2.112 11.966l.006 2.147.003 7.191.009 5.203.011 14.404.017 15.631.026 31.05.033 37.172.07 96.264.012 21.233.075 157.971.012 36.631.002 4.598.104 147.671.083 106.091.001 2.204.012 47.896.003 19.272v2.13l.059 67.945.033 70.346.037 40.564.002 27.085.016 15.44-.007 14.052.018 5.046c.094 10.045-.755 18.381-6.766 26.881-6.496 6.402-13.541 9.338-22.584 9.348l-2.922-.042-3.132-.008-6.705-.039-10.618-.03a3930.69 3930.69 0 0 1-30.181-.093l-18.484-.028-7.033-.045-9.836-.013-2.922-.073c-3.964.066-6.548.172-9.673 2.749-1.774 2.019-3.34 4.097-4.91 6.276-25.227 27.672-68.304 53.311-106.277 55.91-90.602 2.99-184.753-25.975-275.774-49.325l-5.931-1.523-7.239-1.867-3.251-.835-2.812-.727c-6.588-1.627-6.588-1.627-13.099-.396l-2.491.909-2.681 1.026-2.873 1.058-6.187 2.3-16.947 6.228-3.585 1.311c-149.412 54.48-149.412 54.48-218.008 62.435-3.589.463-6.952 1.222-10.469 2.059-17.5 3.615-38.166 3.301-55.375-1.562l-2.054-.554c-33.187-9.135-62.711-31.595-79.946-61.446-3.947-7.443-7.358-15.002-10-23l-2.88.002c-9.003.004-18.005-.024-27.008-.083l-13.881-.04c-4.474.007-8.948-.016-13.422-.058l-5.095-.002c-10.39.053-18.941-.484-27.714-6.82-6.577-6.672-9.249-12.816-9.253-22.256l-.009-2.16.005-7.18-.011-5.216-.001-14.399-.012-15.64-.011-27.434-.016-40.794-.026-77.09v-8.505-2.132l-.01-46.753-.006-19.247-.001-2.148-.02-121.874v-4.562-20.596-9.184-4.597l-.041-145.375-.021-36.629-.001-2.278-.022-69.5v-2.204l-.002-47.89v-17.135-4.263l-.028-67.954-.007-70.336-.016-40.566.005-27.074-.007-15.441.008-14.042-.011-5.053C-.575 21.156-.244 12.025 7.125 4l1.508-1.688c3.1-2.976 6.106-2.439 10.245-2.442zM12 12c-3.599 5.957-4.125 11.191-4.128 18.055l-.005 2.131.001 7.1-.006 5.151-.003 14.233-.009 15.455-.01 30.688-.014 36.743-.026 86.702-.01 44.103-.027 141.44v6.761l-.001 13.559-.001 15.875v4.543l-.042 145.947-.037 104.864v2.178l-.004 47.329v16.935 4.213l-.025 67.159-.011 69.515-.015 40.093.001 26.759-.007 15.261.005 13.879-.008 4.994c-.171 14.141-.171 14.141 5.697 26.712 5.024 4.907 9.322 6.001 16.253 5.966l2.219.001 7.207-.049 5.019-.013 13.168-.074 13.454-.06L97 1046l-.416-2.434-.545-3.226-.541-3.184C84.005 964.396 131.016 884.659 165 823l1.752-3.191C175.817 803.331 185.315 787.121 195 771l1.845-3.072 24.574-39.466 4.203-6.563C238.361 702.024 251.497 682.364 265 663l1.598-2.299c25.163-36.197 51.198-72.028 79.234-106.068l4.305-5.266c8.775-10.807 17.818-21.35 27.277-31.562l7.148-7.93c6.405-7.125 13.121-13.9 20.41-20.121a155.16 155.16 0 0 0 4.148-3.727c10.683-9.926 22.412-18.555 34.625-26.493 4.738-3.108 9.105-6.529 13.399-10.233C460 447 460 447 462.518 445.892c3.296-1.658 5.191-2.971 7.482-5.892 1.578-5.693 1.183-11.757.974-17.606-.099-2.821-.123-5.636-.134-8.459l-.098-5.432-.033-2.526c-.376-9.376-5.292-16.15-10.361-23.731-2.268-3.435-4.047-6.759-5.661-10.56-1.029-2.169-1.029-2.169-2.687-3.687-2.959-.644-5.728-.69-8.754-.742-10.796-.857-19.018-8.739-25.819-16.537-10.869-13.107-20.769-30.427-20.802-47.784l-.074-2.064c-.03-5.121 1.153-7.997 4.449-11.873 4.021-3.268 7.223-3.33 12.313-3.187l3.801.082L420 286c-.892-8.777-2.897-17.323-4.74-25.939-1.272-6.027-2.401-11.978-3.166-18.092-.812-5.479-1.958-8.189-5.656-12.281C393.006 213.846 385.841 195.883 387 175c1.123-7.121 4.55-12.352 10-17 5.995-4.196 11.946-7.505 18.992-9.496 8.562-1.978 8.562-1.978 15.142-7.193 1.564-3.992 2.022-8.153 2.543-12.385 1.979-11.825 14.394-23.473 23.689-30.27 17.17-10.801 36.436-16.445 56.766-11.859 4.118 1.22 7.747 2.513 11.41 4.77 4.04 2.357 7.815 3.002 12.457 2.434 2.379-1.395 4.254-3.052 6.316-4.883 3.37-2.659 6.913-4.523 10.746-6.43l2.002-1.021c9.498-4.662 18.148-5.031 28.623-5.041l3.896-.074C603.247 76.509 614.007 79.897 625 88l2.215 1.621c10.17 8.14 16.108 20.598 17.785 33.379.915 16.669-2.059 31.263-13.25 44.313-4.44 4.673-9.371 8.185-14.75 11.688l-4 3 1.363 2.699c26.002 52.707 51.559 128.177 34.605 186.871-4.984 13.976-12.51 25.092-22.969 35.43l-2.176 2.207c-7.436 7.1-17.148 13.284-26.824 16.793l-.125 7.063-.07 3.973c.198 4.023.722 7.216 2.195 10.965 3.377 1.56 3.377 1.56 6.07 2.215 27.489 7.367 50.615 24.501 71.329 43.419l4.895 4.403c6.346 5.636 12.406 11.512 18.394 17.526l2.721 2.709c5.074 5.081 9.939 10.261 14.592 15.729l2.922 3.352c5.96 6.882 11.708 13.889 17.293 21.078l8.848 11.133 14.436 18.47 5.33 6.956c7.125 9.297 14.148 18.637 20.894 28.211l5.885 8.161 15.518 21.764 1.591 2.272 26.972 39.541 1.434 2.153c105.772 158.883 105.772 158.883 124.73 299.4-3.517 15.767-10.985 32.694-21.121 45.342-1.938 1.966-1.938 1.966-1.73 4.168l37.527.259 17.426.118 16.826.097 6.411.054 8.997.039 2.661.054c6.041-.05 10.749-1.309 15.151-5.622 6.626-7.067 5.697-15.777 5.629-24.814l.022-5.214-.009-14.364.016-15.613.005-27.377.006-40.71.012-68.483-.001-2.107-.001-2.11-.01-63.62.001-4.259.005-17.114.009-47.843v-2.201l-.014-69.432-.001-2.275-.018-36.576.001-145.069.018-36.558.001-2.274.013-69.359v-2.199l-.009-47.789-.005-17.099-.001-4.254.012-63.605.001-2.107.001-2.103-.018-70.183.003-40.48-.018-27.013.002-15.408-.016-14.009.011-5.044c.072-10.268-.545-17.093-7.96-24.709-5.615-3.395-11.676-3.875-18.115-3.877l-2.142-.009c-2.362-.007-4.723-.001-7.085.006l-5.162-.01a4655.83 4655.83 0 0 0-14.22.001c-5.152.004-10.304-.003-15.457-.009l-27.102-.006c-13.434.005-26.867-.001-40.301-.009l-74.063-.015-10.494.001h-2.105c-15.396.001-30.792-.001-46.188-.005l-10.545-.002-4.232-.001h-2.119l-4.243-.001-120.411-.009h-2.252l-24.865.003h-2.268l-9.079.001c-47.872.006-95.744-.002-143.616-.021l-36.19-.014-2.251-.001-68.666-.014h-2.177c-15.772-.001-31.544 0-47.315.001l-16.93.001h-4.212c-22.378.001-44.756-.006-67.133-.017h-69.483c-13.358.007-26.715.005-40.073-.009-8.915-.008-17.83-.006-26.745.006a4325.11 4325.11 0 0 1-15.253-.004c-4.624-.01-9.248-.007-13.872.007-1.664.003-3.327 0-4.991-.008C30.194 3.564 20.225 3.579 12 12zm599 72l2 2 1.387 1.418c1.611 1.619 1.611 1.619 3.445 3.133 9.884 8.792 16.284 23.311 17.323 36.406.768 13.691-1.261 25.445-7.948 37.582-1.427 2.453-1.427 2.453-1.207 5.461 10.036-11.704 17.016-24.65 16.277-40.609C640.735 116.094 636.428 102.109 626 93c-6.954-6.013-6.954-6.013-15-9zm-162 28c-2.473 2.911-4.807 5.873-7 9l1 2 1.512-1.871C463.703 98.492 488.831 94.542 517 92c-20.891-13.927-53.408 4.535-68 20zm-8 11v3zm-2 3l1 2z"/><path d="M611 182c25.156 53.355 54.824 131.608 35.25 190.75-4.201 10.487-9.737 19.819-17.25 28.25l-2.016 2.301c-11.326 12.144-26.678 19.515-42.297 24.512l-1.957.628c-26.709 8.112-58.33 1.742-82.731-10.44l-2.77-1.367C477.344 406.342 463.244 387.597 455 367l2.047-1.102c5.315-2.995 9.097-5.304 11.953-10.898l1.313-2.562c1.886-6.686-2.798-14.444-5.185-20.675l-2.383-6.372c-3.833-10.146-7.985-16.617-16.682-23.266l-1.66-1.288c-3.03-2.289-6.061-4.251-9.442-5.985-9.973-5.141-9.973-5.141-12.656-9.789a61.69 61.69 0 0 1-1.973-8.909c-.371-2.408-.857-4.777-1.359-7.161-2.196-10.604-3.815-21.227-4.973-31.992l2.781-1.215c10.905-4.967 18.074-10.657 22.625-22.133L440 212l2.93.141c12.894.357 21.449-2.308 31.07-11.141 2.133-2.26 4.062-4.565 6-7l1.25 1.137c11.176 9.904 21.647 13.954 36.551 13.465 11.274-.911 21.073-7.237 28.559-15.48 2.029-2.623 3.452-5.03 4.641-8.121l5.688.938 3.199.527c1.815.312 3.627.658 5.418 1.086C582.094 190.349 595.686 182 611 182zm96.207 627.352c2.864 2.633 5.689 5.357 7.793 8.648v3l-2.91-.219c-21.149-1.48-42.149-1.346-63.09 2.219l3.227-.21c12.921-.788 25.821-1.008 38.764-1.03l10.398-.072 6.732-.016 3.078-.037c11.63.036 21.249 2.695 30.8 9.366l3.188 2.188c5.174 5.174 9.784 11.437 10.813 18.813l1.906.297c9.732 1.7 17.867 5.149 23.984 13.188 3.776 5.557 5.982 9.763 6.109 16.516a164.16 164.16 0 0 1-15.312-3.937c-13.513-3.915-27.669-5.389-41.687-6.062v2l3.609-.137c6.652.006 13.101 1.198 19.641 2.324l1.992.34c40.099 6.881 40.099 6.881 48.696 18.285 3.721 5.828 6.747 12.111 6.063 19.188-6.338.199-12.15-.54-18.375-1.687l-3.021-.539-19.133-3.641c-28.182-5.567-28.182-5.567-56.784-7.57l-3-.031c-6.309.078-10.757.873-15.636 5.195l-1.738 1.898c-3.937 4.102-8.188 7.623-12.621 11.176-2.317 1.893-4.505 3.848-6.691 5.887C649.598 946.553 613.999 969 580 969c-1.64-2.253-2.933-4.375-4.25-6.812l-2.664-4.715-1.481-2.644-9.229-15.704-4.152-7.004-2.113-3.563L531.5 887l-13.702-23.168-2.082-3.517-9.731-16.291-1.3-2.141-2.299-3.748C500 834.219 500 834.219 500 832l12.938-4.375 3.674-1.25c6.435-2.163 12.749-3.979 19.389-5.375 1.304-.511 2.597-1.052 3.875-1.625C543 818 543 818 546 818v-2c20.375-5.417 41.223-10.332 62.215-12.57 5.475-.622 10.909-1.495 16.348-2.378 24.358-3.811 62.084-8.403 82.644 8.3zM332.25 711.688l2.996.015C405.38 712.764 463.527 740.763 514 788l3.02 2.742c5.06 4.58 10.055 9.219 14.918 14.008l2.59 2.547c2.813 3.075 5.111 6.272 7.473 9.703l-1.882.516c-49.373 13.568-98.29 29.558-146.118 47.859l-2.659 1.016-2.27.876c-2.032.72-3.943 1.375-6.07 1.733-2.121-1.371-2.121-1.371-4.437-3.437-26.624-22.355-62.809-34.421-97.062-37.5-12.113-1.143-23.728-5.727-32.062-14.875-1.92-4.258-2.59-7.61-1.437-12.187 4.471-7.38 10.375-10.41 18.5-12.562 9.687-2.143 19.625-2.697 29.5-3.437l-2.562-1.285c-18.296-9.46-18.296-9.46-21.442-17.717-.694-4.721-.497-8.025 1.688-12.312 8.024-9.326 20.293-11.978 32.198-12.915 6.7-.391 13.405-.616 20.115-.773l-2.16-.664c-6.331-2.096-11.306-4.346-15.84-9.336-1.509-3.018-1.5-4.623-1-8 2.818-4.623 5.41-7.465 10.609-9.215 4.87-1.033 9.678-1.128 14.641-1.098z" fill="#fdfdfd"/><path d="M471 399c5.138 4.342 10.103 8.826 15 13.438l2.039 1.908c3.25 3.052 6.446 6.134 9.563 9.322C523.965 450.154 561.671 455.835 597 460l1-5c3.382 1.127 3.652 1.583 5.41 4.492l1.311 2.137 1.342 2.246 2.66 4.367 1.18 1.964c.993 1.623 2.042 3.211 3.097 4.793a104.52 104.52 0 0 1 .344 7.918l.042 2.415.078 5.161.259 13.65.061 2.783c.407 17.319 1.4 34.672 3.603 51.858 1.039 8.703.778 17.466.614 26.214-5.064-3.672-9.789-7.495-14.312-11.812-4.85-4.556-9.84-8.84-15.031-13.008-4.355-3.574-8.506-7.372-12.656-11.18-3.211.704-3.211.704-4.527 3.607l-1.625 3.507-.899 1.92-2.886 6.279-2 4.322C557.76 582.302 551.812 596.118 546 610h-3c-1.603-1.902-1.603-1.902-3.336-4.582l-1.956-2.985-2.083-3.245-3.261-4.983-2.201-3.369-9.789-14.586-1.582-2.306-17.018-24.415-7.129-10.184-6.991-9.983-3.209-4.584c-17.328-25.494-17.328-25.494-36.782-49.317C446 473 446 473 445.934 470.574c1.436-3.467 3.65-6.006 6.129-8.762l3.008-3.453 1.505-1.717c4.214-4.858 8.344-9.837 11.8-15.268L470 439h2l-.219-2.91c-.86-12.368-.888-24.696-.781-37.09z" fill="#ebeded"/><path d="M471 399c5.138 4.342 10.103 8.826 15 13.438l2.039 1.908c3.25 3.052 6.446 6.134 9.563 9.322C523.435 449.622 560.368 455.603 595 460c1.196 3.587.727 4.473-.535 7.952l-1.094 3.058-1.218 3.314-1.239 3.437-3.976 10.926-2.607 7.213L571 532c-2.804-1.275-4.816-2.58-6.953-4.793l-1.614-1.649-1.683-1.745c-4.13-4.213-8.292-8.255-12.793-12.074-3.326-2.954-6.394-6.168-9.52-9.332a121.41 121.41 0 0 0-6.437-5.906c-4.075-3.483-7.793-7.278-11.559-11.09-2.713-2.679-5.549-5.156-8.445-7.633-3.064-2.728-5.901-5.674-8.781-8.594-1.991-1.963-4.028-3.804-6.152-5.621-4.085-3.5-7.819-7.304-11.598-11.129-2.821-2.785-5.753-5.395-8.773-7.961L475 443l-1.68-1.207c-2.122-2.881-1.903-6.088-2.008-9.543l-.101-2.341c-.39-10.296-.301-20.608-.211-30.909zM370.313 862l1.919 1.058c3.432 1.962 6.036 4.108 8.768 6.942-8.306 3.886-16.733 7.427-25.227 10.876l-6.496 2.659-4.176 1.699-1.938.799c-8.774 3.541-8.774 3.541-12.288 2.09l-2.208-1.349c-6.112-3.272-12.469-4.47-19.213-5.741l-10.982-2.212-2.201-.457c-16.662-3.515-35.82-7.912-48.271-20.363-2.725-4.473-2.639-8.907-2-14 3.056-6.356 8.314-10.508 14.375-13.875 33.584-10.892 82.211 16.495 109.938 31.875z" fill="#fdfdfd"/><path d="M420.371 288.648c2.302.989 4.446 2.122 6.629 3.352l2.73 1.402c12.397 6.698 25.122 16.214 30.32 29.656l.797 2.021 1.636 4.213 2.534 6.405 1.596 4.111.773 1.913c1.563 4.151 1.778 7.001.614 11.278-2.687 4.759-6.406 9.866-11.793 11.629-8.108 1.363-16.035 1.7-23.07-2.969C419.046 350.712 410.228 338.096 403 322l-1.383-2.898c-3.249-7.565-3.995-15.996-2.617-24.102 4.913-8.074 12.625-8.743 21.371-6.352z" fill="#fbfbfb"/><path d="M659 611c2.792 3.375 4.555 7.062 6.336 11.027l.956 2.097 3.083 6.813 2.168 4.773 14.603 32.456 12.042 26.646 16.75 37.063 18.379 40.502 14.725 32.581 9.287 20.448 1.114 2.419 5.442 11.766 1.975 4.283.92 1.963c1.544 3.366 2.678 6.493 3.221 10.162-12.451-1.978-12.451-1.978-16.09-6.727-1.428-3.053-2.685-6.134-3.91-9.273-4.592-6.954-12.034-11.877-20.014-14.146-3.482-1.298-3.86-1.619-5.733-5.106-.383-1.334-.73-2.678-1.046-4.029l-.597-2.186-1.797-7.033-1.288-4.836-3.015-11.657-2.044-7.846-1.787-6.815c-1.527-5.9-3.255-11.728-5.035-17.556l-5.119-17.414C696.73 721.114 690.663 700.993 684 681l-1.165-3.535c-5.721-17.314-12.177-34.264-19.01-51.164l-.969-2.411-1.825-4.496C659.844 616.438 659 614.217 659 611z" fill="#1b1b1b"/><path d="M580 969h3l4.313 6.75c3.963 6.605 8.208 12.922 12.688 19.188 4.544 6.401 8.876 12.867 12.875 19.625l1.281 2.146C617 1021.618 617 1021.618 617 1025c-19.473 7.943-39.209 15.118-58.984 22.264l-40.328 15.048c-18.73 7.355-37.693 14.052-56.687 20.688l-2.922 1.021C393.754 1106.481 328.222 1128.054 261 1140l1-3c1.997-.898 1.997-.898 4.673-1.647l3.058-.876 3.375-.926 3.517-.998 7.576-2.128 12.071-3.406 4.11-1.169 2.068-.588 6.281-1.78C349.475 1111.95 389.845 1099.444 430 1086l6.126-2.046 90.797-31.84 8.872-3.206c19.49-7.036 38.903-14.209 58.121-21.962l1.962-.787 5.175-2.09c2.659-.965 5.161-1.608 7.946-2.069l-6.75-13.187-1.018-1.98c-4.995-9.701-10.183-19.256-15.726-28.659l-1.409-2.404-1.234-2.075C582 972 582 972 582 970l-2-1z" fill="#1a1a1a"/><path d="M613 476l2 1c2.182 9.071 2.637 18.689 3.473 27.961l.388 4.208.799 8.758 1.015 11.089.795 8.674.553 6.033c1.226 13.584 2.138 27.066 2.039 40.714l-.014 3.697L624 597c-5.536-3.986-10.626-8.234-15.562-12.937l-2.131-2.016c-10.3-9.812-20.292-19.946-30.307-30.047-2.52 2.52-3.273 4.854-4.582 8.176l-1.557 3.909-.826 2.089c-4.794 12.103-9.807 24.086-15.16 35.952l-.834 1.853c-2.582 5.728-5.207 11.414-8.041 17.022-4.288-4.019-7.657-8.409-11.062-13.187l-1.506-2.076c-4.315-6.009-8.406-12.164-12.498-18.325l-12.062-17.978-1.842-2.725-7.469-11.043-22.324-33.742-5.469-8.442-5.302-8.208-3.101-4.787-4.991-7.735-1.58-2.419-1.459-2.284-1.295-2.005c-1.186-2.328-1.636-4.472-2.041-7.042 4.446 4.155 7.937 8.767 11.5 13.688l1.851 2.537 3.797 5.222 5.2 7.135c6.148 8.435 12.126 16.971 17.995 25.603l9.47 13.565c12.19 16.956 23.924 34.215 35.45 51.628L544 610c2.423-2.423 3.246-4.613 4.582-7.773l1.557-3.651.826-1.952 4.363-10.163.912-2.11 8.982-20.252 2.463-5.487 1.538-3.346 1.336-2.944c1.579-2.543 2.67-3.303 5.441-4.321l2.02 1.871c4.666 4.288 9.344 8.479 14.293 12.441 5.167 4.163 10.011 8.614 14.829 13.171 3.178 2.999 6.397 5.839 9.858 8.516.182-9.117.281-18.129-.875-27.187-3.324-26.869-3.404-53.787-3.125-80.812z" fill="#202020"/><path d="M440 212l6 1c6.994 29.808-1.372 51.575-13 79-4.408-1.202-7.155-2.365-10-6-.957-2.476-.957-2.476-1.598-5.27l-.736-3.163-.729-3.38-.776-3.466c-2.413-11.153-3.959-22.38-5.162-33.721l2.781-1.215c10.905-4.967 18.074-10.657 22.625-22.133L440 212z" fill="#cacaca"/><path d="M370 858c2.992 2.253 5.939 4.562 8.791 6.99 1.648 1.402 1.648 1.402 4.209 3.01 2.895-.447 5.59-1.526 8.334-2.535l2.571-.941 2.759-1.016 5.84-2.137 9.163-3.364 8.873-3.25 2.722-1.004c5.854-2.139 11.749-4.029 17.739-5.754v2l-3.12 1.171C415.912 859.433 394.247 868.009 373 878l-3.301 1.55L348 890l-2.861 1.397c-12.909 6.32-25.594 12.99-38.165 19.958l-9.481 5.211C265.445 934.174 233.182 952.859 204 975l-2-1c8.659-7.532 17.577-14.586 26.818-21.389l6.791-5.06c28.212-21.073 58.663-40.631 90.627-55.598 2.275-1.229 3.345-2.825 4.764-4.953l1.678.613c3.044.507 4.638-.242 7.479-1.422l3.073-1.254 3.271-1.375 6.746-2.77 3.417-1.417 14.899-6.001 4.941-1.977L380 870c-27.837-23.442-73.046-38.9-109-41v-1c30.943-7.449 74.02 12.777 99 30z" fill="#1c1c1c"/><path d="M568 214h2c6.646 11.39 12.492 23.02 18 35l.77-1.68 1.043-2.195 1.02-2.18C592 241 592 241 595 239c4.305.081 6.629.758 10.25 3.125 4.369 4.568 5.9 8.763 6.188 15-.122 3.339-.422 4.846-2 7.875-3 2.462-5.67 3.203-9.437 4l5 2c-3.094.994-4.903.878-8 0l.918 2.399 3.354 8.862 1.455 3.826 2.085 5.518 1.27 3.348c.869 2.884 1.112 5.061.918 8.046l-6.375.063-3.586.035C594 303 594 303 592 302l.567 1.605 2.496 7.208.893 2.525.83 2.432.778 2.238C598 320 598 320 597 323c-4.564 2.786-9.679 4.557-15 5l-2.016.191c-7.927.43-15.597-2.507-21.984-7.191v-2l2.422.656c11.184 2.835 20.425 3.036 31.578.344l-.734-1.988-3.266-8.887-1.156-3.129-1.094-2.988-1.016-2.761C584 298 584 298 584 296l5.25-.062 2.953-.035c2.472.086 4.43.457 6.797 1.098-4.644-13.763-9.834-27.19-15.5-40.562-4.347-10.28-8.638-20.565-12.531-31.027l-.912-2.431c-1.14-3.113-2.056-5.637-2.056-8.979z" fill="#090909"/><path d="M460 854h2c1.078 1.383 1.078 1.383 2.25 3.34l1.327 2.193 1.423 2.405 1.495 2.491L473 872l2.387 3.996 16.402 28.388 19.507 33.702 5.091 8.722 1.707 2.929 3.441 5.907 9.703 16.539C559 1019.23 559 1019.23 559 1024c-3.243-1.081-3.634-1.491-5.496-4.148l-1.424-2.016-1.518-2.21-1.602-2.306C538.201 997.694 528.542 981.386 519 965l-1.793-3.075c-13.677-23.482-26.872-47.228-39.725-71.17l-4.302-7.946C468.11 873.411 463.688 864.03 460 854z" fill="#1a1a1a"/><path d="M752 904l13.95 2.314c5.374.93 10.725 1.791 16.143 2.42 13.679 1.764 13.679 1.764 17.18 6.047 1.289 3.219 1.289 3.219 1.98 6.344 1.071 4.128 3 5.774 6.562 8.02 2.251 1.32 4.526 2.591 6.809 3.855 6.849 3.878 13.522 7.933 20.063 12.313l2.172 1.451c4.829 3.263 9.508 6.701 14.14 10.236l-2 1c-2.173-.889-2.173-.889-4.891-2.324l-3.054-1.599-3.305-1.764-3.418-1.801-23.877-12.921c-6.113-3.355-12.285-6.579-18.492-9.756-10.009-5.124-19.896-10.378-29.587-16.085l-2.838-1.664c-6.409-3.829-6.409-3.829-7.537-6.086z" fill="#1c1c1c"/><path d="M423 629h2c-1.244 6.886-2.931 13.495-5.039 20.164l-.866 2.782-2.72 8.679-1.852 5.934L410 681l1.828-3.359 2.422-4.391 1.199-2.211c2.149-3.876 4.164-7.088 7.551-10.039-.923 5.403-3.077 9.84-5.437 14.75l-1.343 2.821c-3.244 6.701-6.888 13.037-10.806 19.36-3.52 5.846-5.527 11.714-7.281 18.288C397 719 397 719 395.07 719.934c-2.785.089-5.348-.377-8.07-.934l1.39-1.721c1.59-2.251 2.465-4.155 3.372-6.744l.939-2.64.987-2.833 2.145-6.012 1.096-3.076 4.947-13.225.981-2.561 2.045-5.325 3.58-9.363L423 629z" fill="#1a1a1a"/><path d="M498.75 84.625l2.918.003c9.689.16 18.117 1.95 26.332 7.372v1c-4.745.269-8.356-.012-12.875-1.5-16.498-4.776-33.902-.955-48.692 7.084C448.796 108.86 440.414 124.637 433 143h-3c1.121-17.095 9.829-30.457 22.372-41.643 13.255-11.052 29.279-16.761 46.378-16.732zM588 76c16.745-.987 28.959 4.206 41.75 14.75 10.089 9.367 15.703 22.293 16.453 35.949.197 16.748-4.067 30.7-15.898 43.109-3.229 3.07-6.595 5.729-10.305 8.191l-2.875 1.938L615 181l-2-1 4.688-4.25 2.637-2.391c1.717-1.514 3.479-2.981 5.289-4.383 10.262-8.499 14.385-22.319 15.59-35.137.371-15.045-5.164-28.74-15.203-39.84-10.449-9.055-24.257-15.235-38-17v-1z" fill="#1a2e35"/><path d="M332 741c6.522-.324 12.563.882 18.938 2.188l3.379.69C387.939 750.934 416.328 766.494 442 789l1.536 1.328c6.299 5.447 6.299 5.447 8.464 7.672v2c-2.687-1.27-5.014-2.651-7.363-4.469l-1.914-1.466-2.035-1.566c-21.915-16.608-45.341-30.094-71.506-38.773l-6.724-2.289c-8.465-2.898-16.919-5.46-25.613-7.578C334 743 334 743 332 741z" fill="#293c42"/><path d="M526.5 260.375c4.152.741 5.642 1.536 8.5 4.625 4.278 7.159 5.917 13.641 5 22-1.075 2.468-2.219 3.94-4 6l-2-1 2-4-3 2c-4.103.638-5.663.218-9.187-2.062-4.752-4.477-5.986-9.163-6.312-15.5.115-3.621.429-6.154 2.563-9.125C523 261 523 261 526.5 260.375z" fill="#070707"/><path d="M303 787c36.981-1.015 72.278 14.058 102 35l2.232 1.567 7.393 5.246 2.41 1.708 2.254 1.624 2.022 1.448C423 835 423 835 425 838c-3.65-1.356-6.84-3.006-10.148-5.055l-3.011-1.845-3.216-1.975C374.979 808.747 341.386 796.348 303 788v-1z" fill="#2a3d43"/><path d="M598.902 207.051c6.769 3.292 6.769 3.292 8.098 5.949.375 2.875.375 2.875 0 6-2.206 2.615-3.993 3.854-7.409 4.35-2.895.117-5.757.097-8.653.025l-3.01-.004c-8.333-.101-8.333-.101-11.928-2.371-1.564-3.129-1.356-5.556-1-9 6.246-6.603 15.506-7.989 23.902-4.949z" fill="#080808"/><path d="M524 227c2.938 2 2.938 2 5 4-.521 5.602-2.28 8.643-6.543 12.337-1.745 1.375-3.526 2.681-5.332 3.975l-1.816 1.377c-3.848 2.775-6.403 4.018-11.309 3.311-2.437-1.562-2.437-1.562-4-4 0-5.462 1.605-8.801 5-13 5.731-5.704 10.604-8.9 19-8z" fill="#050505"/><path d="M370 858c4.443 3.195 8.744 6.562 13 10l-2 2-2.656-1.766C346.84 847.71 308.902 831.329 271 829v-1c31.093-7.485 73.838 12.885 99 30z" fill="#2f4047"/><path d="M412 306c10.32-.764 19.088 3.545 27 10 6.559 6.199 11.105 12.897 15 21l.996 1.934c2.203 4.565 2.676 9.081 3.004 14.066-4.812-1.931-7.409-5.723-10.684-9.59-3.17-3.298-5.591-5.236-10.211-5.703l-2.918.105-2.957.082L429 338c2.342-2.904 3.712-3.925 7.375-4.875 3.772-.13 6.119.601 9.625 1.875l-3.75-5.187-2.109-2.918C432.618 316.723 424.216 310.592 412 307v-1z" fill="#293c42"/><path d="M427.777 289.723c8.288 3.285 15.411 9.241 22.223 14.902l1.635 1.342c5.65 4.813 8.764 10.389 11.416 17.225l.797 2.023 1.636 4.208 2.534 6.411 1.596 4.107.773 1.92c1.979 5.228 1.459 8.11-.636 13.139-2.62 4.492-6.267 8.31-10.75 11l-3-1 5.438-5.312c2.681-2.811 4.767-5.234 6.563-8.687-.533-6.815-2.917-12.74-5.391-19.052l-2.133-5.634c-4.011-10.31-9.038-16.835-17.789-23.439l-1.683-1.271c-4.164-3.098-8.472-5.871-12.981-8.447-1.717-.981-3.378-2.059-5.023-3.156 2-1 2-1 4.777-.277z" fill="#1a1a1a"/><path d="M549 185c0 4.037-1.35 4.877-4.125 7.75-9.995 9.725-21.467 13.634-35.352 13.539-7.964-.653-15.56-3.427-22.523-7.289l-1-2 4.813 1.438 2.707.809c1.835.558 3.661 1.147 5.48 1.754 19.415 1.814 34.878-3.781 50-16z" fill="#e0e1e1"/><path d="M549 187l1 2c-7.872 9.427-16.554 18.589-29.387 20.322-13.798 1.046-23.768-.809-34.703-9.541-1.918-1.789-3.409-3.636-4.91-5.781 3.653 1.25 4.781 1.671 7 5 3.188 1.433 3.188 1.433 6.875 2.625l3.742 1.289c13.258 4.256 25.154 2.242 37.328-3.984 5.097-3.22 9.058-7.455 13.055-11.93z" fill="#293b42"/><path d="M546 817c-5.877 3.918-12.034 5.656-18.812 7.313-9.568 2.418-18.869 5.448-28.187 8.688l-1-1-1.941.656c-5.232 1.684-9.565 2.702-15.059 2.344 2.832-1.888 4.888-2.715 8.102-3.699l3.14-.967 3.383-1.022 3.473-1.059A1208.53 1208.53 0 0 1 535 818l2.075-.58c2.968-.647 5.901-.478 8.925-.42z" fill="#24373e"/><path d="M715 821v1l-3.997.076-14.985.296-6.429.125c-13.88.264-27.729.716-41.589 1.503l1-2c21.057-5.066 44.722-4.199 66-1z" fill="#2f4148"/><path d="M731 872c19.437-1.252 38.939 3.08 57 10l1-2v4c-6.014-.896-11.947-1.961-17.864-3.369-13.229-3.133-26.67-4.841-40.136-6.631v-2z" fill="#304249"/><path d="M441 848v2l-3.358 1.282-12.536 4.797-5.388 2.06C409.046 862.212 398.452 866.386 388 871l-1-4 1.617-.587 16.743-6.084 6.238-2.267 8.996-3.269 2.791-1.014 2.668-.97 2.532-.92 6.941-2.626C439 848 439 848 441 848z" fill="#2f2f2f"/><path d="M514 826c-2.579 3.158-5.355 3.993-9.187 5.188l-3.293 1.043-2.52.77-1-1-1.941.656c-5.232 1.684-9.565 2.702-15.059 2.344 4.842-3.228 10.407-4.481 15.938-6.187l3.615-1.154 3.475-1.076 3.179-.993c2.764-.583 4.18-.551 6.793.411z" fill="#2c3d43"/><path d="M573 347l1 3c-3.411 3.646-5.371 4.852-10.437 5.313C560 355 560 355 557.563 353L556 351l1-2 1.5 1.063c3.641 1.365 6.773.9 10.5-.062 2.439-1.406 2.439-1.406 4-3z" fill="#151515"/><path d="M405 863c-3.249 2.166-6.606 3.624-10.187 5.125l-1.982.84L388 871l-1-4 6.75-2.562 1.922-.748c3.438-1.271 5.85-2.156 9.328-.689z" fill="#2b2b2b"/><path d="M659 611c2.299 2.857 3.841 5.608 5.262 8.984l1.201 2.832 1.225 2.934 1.26 2.98L671 636l-3 1-4.5-11.312-1.301-3.248-1.23-3.115-1.143-2.872C659 614 659 614 659 611z" fill="#151515"/><path d="M731 872l6.75-.062 3.797-.035c2.738.077 4.872.27 7.453 1.098v2c-6.115.097-11.933-.23-18-1v-2z" fill="#4b5b60"/><path d="M466 334c1.78 2.67 2.972 5.05 4.188 8l1.105 2.625C472 347 472 347 471 350h-2l-2.062-5.187-1.16-2.918c-.834-3.104-.664-4.844.223-7.895z" fill="#212121"/><path d="M481 194c3.653 1.25 4.781 1.671 7 5 2.406 1.228 2.406 1.228 5.125 2.188l2.758 1.043L498 203l-1 3c-6.568-2.053-12.096-6.398-16-12z" fill="#405056"/><path d="M775 878l4.813 1.438 2.707.809L788 882l1-2v4l-5.75-.875-3.234-.492c-2.693-.565-4.651-1.267-7.016-2.633h2v-2z" fill="#556368"/><path d="M546 817c-4.058 2.705-8.049 5-13 5v-2l-2-1c5.225-1.467 9.581-2.226 15-2z" fill="#3c4d53"/><path d="M498 831c-5.69 3.064-10.511 4.26-17 4 5.399-3.599 10.6-4.261 17-4z" fill="#2f2f2f"/><path d="M661 821c-1 2-1 2-2.562 2.625-3.501.539-6.896.434-10.437.375l1-2c4.03-.937 7.874-1.098 12-1z" fill="#4f5f64"/><path d="M332 741c6.625-.125 6.625-.125 10 1l1 3-4.375-.875-2.461-.492C334 743 334 743 332 741z" fill="#48585e"/><path d="M533 820v2l-7 2v-2l-2-1c3.073-.911 5.801-1.089 9-1z" fill="#2e4047"/><path d="M462 328l3 1 1 7h-2c-1.257-2.906-2-4.796-2-8z" fill="#101010"/><path d="M597 266c3 2 3 2 5 4l3 2c-3.719-.507-6.735-1.116-10-3 1-2 1-2 2-3z" fill="#4e4e4e"/><path d="M405 863c-2.666 1.777-5.028 2.875-8 4 .313-1.937.313-1.937 1-4 3.133-1.044 3.99-.934 7 0z" fill="#222"/><path d="M434 294c2.438.75 2.438.75 5 2 .813 2.125.813 2.125 1 4l-6-3v-3z" fill="#131313"/></svg>