<?xml version="1.0" encoding="UTF-8"?>
<svg xmlns="http://www.w3.org/2000/svg" xmlns:xlink="http://www.w3.org/1999/xlink" width="px" height="96px" viewBox="0 0 84 96" version="1.1">
<g id="surface1">
<path style=" stroke:none;fill-rule:nonzero;fill:rgb(100%,100%,100%);fill-opacity:1;" d="M 70.554688 6 L 0 6 L 0 76.554688 C 0 80.117188 1.425781 83.53125 3.9375 86.0625 C 6.449219 88.59375 9.882812 90 13.445312 90 L 70.554688 90 C 74.117188 90 77.53125 88.574219 80.0625 86.0625 C 82.59375 83.550781 84 80.117188 84 76.554688 L 84 19.445312 C 84 15.882812 82.574219 12.46875 80.0625 9.9375 C 77.550781 7.40625 74.117188 6 70.554688 6 Z M 62.324219 80.886719 C 60.882812 79.292969 60.132812 77.007812 60.074219 74.023438 L 65.945312 74.023438 C 65.980469 76.667969 66.898438 77.980469 68.71875 77.980469 C 69.636719 77.980469 70.292969 77.679688 70.6875 77.101562 C 71.0625 76.519531 71.25 75.601562 71.25 74.324219 C 71.25 73.3125 71.007812 72.46875 70.5 71.8125 C 69.84375 71.023438 68.980469 70.40625 68.023438 70.03125 L 65.851562 69 C 63.917969 68.082031 62.511719 66.976562 61.632812 65.699219 C 60.789062 64.425781 60.375 62.644531 60.375 60.375 C 60.375 57.824219 61.125 55.761719 62.585938 54.167969 C 64.105469 52.574219 66.167969 51.789062 68.8125 51.789062 C 71.363281 51.789062 73.332031 52.574219 74.71875 54.132812 C 76.125 55.707031 76.875 57.9375 76.929688 60.863281 L 71.289062 60.863281 C 71.324219 59.90625 71.117188 58.949219 70.726562 58.085938 C 70.40625 57.449219 69.789062 57.132812 68.851562 57.132812 C 67.199219 57.132812 66.375 58.105469 66.375 60.074219 C 66.375 61.070312 66.582031 61.835938 66.976562 62.4375 C 67.554688 63.09375 68.289062 63.601562 69.113281 63.898438 L 71.195312 64.820312 C 73.351562 65.8125 74.886719 67.011719 75.84375 68.457031 C 76.800781 69.898438 77.269531 71.832031 77.269531 74.269531 C 77.269531 77.175781 76.519531 79.40625 74.960938 80.960938 C 73.425781 82.519531 71.304688 83.304688 68.570312 83.304688 C 65.832031 83.304688 63.769531 82.519531 62.304688 80.925781 Z M 43.386719 80.886719 C 41.945312 79.292969 41.195312 77.007812 41.136719 74.023438 L 47.007812 74.023438 C 47.042969 76.667969 47.960938 77.980469 49.78125 77.980469 C 50.699219 77.980469 51.355469 77.679688 51.730469 77.101562 C 52.105469 76.519531 52.292969 75.601562 52.292969 74.324219 C 52.292969 73.3125 52.050781 72.46875 51.5625 71.8125 C 50.90625 71.023438 50.042969 70.40625 49.085938 70.03125 L 46.914062 69 C 44.980469 68.082031 43.574219 66.976562 42.695312 65.699219 C 41.851562 64.425781 41.4375 62.644531 41.4375 60.375 C 41.4375 57.824219 42.1875 55.761719 43.648438 54.167969 C 45.167969 52.574219 47.230469 51.789062 49.875 51.789062 C 52.425781 51.789062 54.394531 52.574219 55.761719 54.132812 C 57.1875 55.707031 57.917969 57.9375 57.992188 60.863281 L 52.351562 60.863281 C 52.386719 59.90625 52.179688 58.949219 51.789062 58.085938 C 51.46875 57.449219 50.851562 57.132812 49.914062 57.132812 C 48.261719 57.132812 47.4375 58.105469 47.4375 60.074219 C 47.4375 61.070312 47.644531 61.835938 48.039062 62.4375 C 48.617188 63.09375 49.351562 63.601562 50.175781 63.898438 L 52.257812 64.820312 C 54.414062 65.8125 55.949219 67.011719 56.90625 68.457031 C 57.863281 69.898438 58.332031 71.832031 58.332031 74.269531 C 58.332031 77.175781 57.5625 79.40625 56.023438 80.960938 C 54.488281 82.519531 52.367188 83.304688 49.632812 83.304688 C 46.894531 83.304688 44.832031 82.519531 43.367188 80.925781 Z M 23.585938 81.09375 C 22.011719 79.648438 21.242188 77.492188 21.242188 74.625 L 21.242188 60.488281 C 21.242188 57.636719 22.070312 55.480469 23.71875 54 C 25.386719 52.539062 27.601562 51.789062 30.320312 51.789062 C 32.960938 51.789062 35.042969 52.539062 36.582031 54.039062 C 38.136719 55.539062 38.925781 57.789062 38.925781 60.769531 L 38.925781 61.894531 L 32.71875 61.894531 L 32.71875 60.804688 C 32.71875 59.664062 32.476562 58.800781 31.96875 58.257812 C 31.761719 57.976562 31.480469 57.75 31.164062 57.601562 C 30.84375 57.449219 30.507812 57.375 30.148438 57.394531 C 29.136719 57.394531 28.425781 57.730469 28.011719 58.445312 C 27.582031 59.417969 27.394531 60.46875 27.449219 61.519531 L 27.449219 73.800781 C 27.449219 76.367188 28.351562 77.664062 30.148438 77.699219 C 30.992188 77.699219 31.632812 77.398438 32.0625 76.800781 C 32.53125 76.03125 32.757812 75.148438 32.71875 74.25 L 32.71875 73.332031 L 38.925781 73.332031 L 38.925781 74.289062 C 38.925781 76.273438 38.53125 77.945312 37.761719 79.273438 C 37.011719 80.570312 35.90625 81.617188 34.554688 82.273438 C 33.113281 82.96875 31.539062 83.304688 29.945312 83.269531 C 27.28125 83.269531 25.164062 82.539062 23.605469 81.09375 Z M 23.585938 81.09375 "/>
</g>
</svg>
