<?xml version="1.0" encoding="UTF-8"?>
<svg xmlns="http://www.w3.org/2000/svg" xmlns:xlink="http://www.w3.org/1999/xlink" width="px" height="96px" viewBox="0 0 93 96" version="1.1">
<g id="surface1">
<path style=" stroke:none;fill-rule:nonzero;fill:rgb(100%,100%,100%);fill-opacity:1;" d="M 31.105469 74.511719 C 31.105469 74.886719 30.675781 75.1875 30.132812 75.1875 C 29.511719 75.242188 29.082031 74.945312 29.082031 74.511719 C 29.082031 74.136719 29.511719 73.835938 30.054688 73.835938 C 30.617188 73.78125 31.105469 74.082031 31.105469 74.511719 Z M 25.273438 73.667969 C 25.144531 74.042969 25.519531 74.476562 26.082031 74.585938 C 26.570312 74.773438 27.132812 74.585938 27.242188 74.210938 C 27.355469 73.835938 27 73.40625 26.4375 73.238281 C 25.949219 73.105469 25.40625 73.292969 25.273438 73.667969 Z M 33.5625 73.351562 C 33.019531 73.480469 32.644531 73.835938 32.699219 74.269531 C 32.757812 74.644531 33.242188 74.886719 33.804688 74.757812 C 34.351562 74.625 34.726562 74.269531 34.667969 73.894531 C 34.613281 73.539062 34.105469 73.292969 33.5625 73.351562 Z M 45.898438 1.5 C 19.894531 1.5 0 21.242188 0 47.25 C 0 68.042969 13.085938 85.835938 31.78125 92.101562 C 34.179688 92.53125 35.023438 91.050781 35.023438 89.832031 C 35.023438 88.667969 34.96875 82.257812 34.96875 78.320312 C 34.96875 78.320312 21.84375 81.132812 19.085938 72.730469 C 19.085938 72.730469 16.949219 67.273438 13.875 65.867188 C 13.875 65.867188 9.582031 62.925781 14.175781 62.980469 C 14.175781 62.980469 18.84375 63.355469 21.414062 67.820312 C 25.519531 75.054688 32.398438 72.976562 35.082031 71.738281 C 35.511719 68.738281 36.730469 66.65625 38.082031 65.417969 C 27.601562 64.257812 17.023438 62.738281 17.023438 44.699219 C 17.023438 39.542969 18.449219 36.957031 21.449219 33.65625 C 20.960938 32.4375 19.367188 27.414062 21.9375 20.925781 C 25.855469 19.707031 34.875 25.988281 34.875 25.988281 C 38.625 24.9375 42.65625 24.394531 46.648438 24.394531 C 50.644531 24.394531 54.675781 24.9375 58.425781 25.988281 C 58.425781 25.988281 67.445312 19.6875 71.363281 20.925781 C 73.929688 27.429688 72.335938 32.4375 71.851562 33.65625 C 74.851562 36.976562 76.6875 39.5625 76.6875 44.699219 C 76.6875 62.792969 65.644531 64.238281 55.164062 65.417969 C 56.886719 66.898438 58.351562 69.710938 58.351562 74.117188 C 58.351562 80.4375 58.292969 88.257812 58.292969 89.792969 C 58.292969 91.011719 59.15625 92.492188 61.539062 92.0625 C 80.289062 85.835938 93 68.042969 93 47.25 C 93 21.242188 71.90625 1.5 45.898438 1.5 Z M 18.226562 66.167969 C 17.980469 66.355469 18.039062 66.789062 18.355469 67.144531 C 18.65625 67.445312 19.085938 67.574219 19.332031 67.332031 C 19.574219 67.144531 19.519531 66.710938 19.199219 66.355469 C 18.898438 66.054688 18.46875 65.925781 18.226562 66.167969 Z M 16.199219 64.648438 C 16.070312 64.894531 16.257812 65.195312 16.632812 65.382812 C 16.929688 65.570312 17.304688 65.511719 17.4375 65.25 C 17.570312 65.007812 17.382812 64.707031 17.007812 64.519531 C 16.632812 64.40625 16.332031 64.460938 16.199219 64.648438 Z M 22.273438 71.324219 C 21.976562 71.570312 22.085938 72.132812 22.519531 72.488281 C 22.949219 72.917969 23.492188 72.976562 23.738281 72.675781 C 23.980469 72.429688 23.867188 71.867188 23.492188 71.511719 C 23.082031 71.082031 22.519531 71.023438 22.273438 71.324219 Z M 20.136719 68.570312 C 19.835938 68.757812 19.835938 69.242188 20.136719 69.675781 C 20.4375 70.105469 20.945312 70.292969 21.1875 70.105469 C 21.488281 69.863281 21.488281 69.375 21.1875 68.945312 C 20.925781 68.511719 20.4375 68.324219 20.136719 68.570312 Z M 20.136719 68.570312 "/>
</g>
</svg>
